<?xml version="1.0" encoding="utf-8"?>
<!-- Generator: Adobe Illustrator 25.3.1, SVG Export Plug-In . SVG Version: 6.00 Build 0)  -->
<svg version="1.1" id="Group_1_1_" xmlns="http://www.w3.org/2000/svg" xmlns:xlink="http://www.w3.org/1999/xlink" x="0px" y="0px"
	 viewBox="0 0 700 300" style="enable-background:new 0 0 700 300;" xml:space="preserve">
<style type="text/css">
	.st0{fill:#F39B3D;}
	.st1{fill:#FEFEFD;}
	.st2{fill:#417CB7;}
</style>
<g id="Background_xA0_Image_1_">
	<path class="st0" d="M124,228c-0.2,7.9-3.9,14.6-6.5,21.8c-1.2,3.3-1.8,6.7-3.5,10c-2.9,5.8-4.7,12.2-7,18.3c-1,0-2,0-3,0
		c-0.4-3.1-4.1-4.4-4.1-8.1c0-2.2-0.1-4.1,2.2-5.5c-4.1-3.2-3.2-6.2,0.2-8.6c3.1-2.2,3.6-5.8,4.5-8.9c1.5-5,2.9-10,5.2-14.7
		c1.2-2.5,0.9-5.6,0.5-7.4c-0.7-3.2,1-4.8,2.3-6.2c1.7-1.8,4.9-0.9,6.7,0c1.7,0.8,2.2,3.7,1.7,6.1C123,225.9,121.8,227.3,124,228
		L124,228z"/>
	<path class="st0" d="M119.5,93.7c7.8-2.4,15.1-2.2,21.7-6.7c1.7,0.6,3.8,1,6.7,0.7c6.9-0.9,13.9,0.4,20.9,1.9
		c7.9,1.6,12.6,7,18.4,10.9c3.3,2.2,9,3.7,9,9.9c0,0.7,2.3,3.7,3.3,4.2c3.9,1.8,4.5,4.2,3.1,7.8c6,2.2,7.2,7.5,8,12.6
		c0.2,1.3,0.6,1.8,1.3,2.6c2.7,2.8,4,5.7-1,7.9c1.6,1.9,3.7,2.3,5.4,3.3c-0.8,2.5-7.1-1.2-4.7,4.5c-4.4,0.6-6.4-1.4-7.8-5.1
		c-2-5.1-4.4-10-6.5-15.1c-0.9-2.2-2.3-2.9-5.5-1.7c2.5-3,2.4-4.2,0-6.5c-2.6-2.6-5.4-6.2-4.5-10.6c-1-2-3.3-1.3-4.7-2.6
		c-1.5-1.4-4.2-0.9-4.5-4.4c-0.1-1.2-3.6-5.2-7.2-2c-0.8,0.7-1.8,0.2-2.2-0.3c-5.8-7.3-13.2-5.6-20.9-4.5
		c-5.4,0.7-10.7,0.2-16.1,2.3c-5,1.9-9.2,4.8-13,8.1c-6.4,5.6-10.2,13.1-12.5,21.1c-2.5,8.7-1.5,17.6,0.7,26.5c1,4,2.6,7.6,3.9,11.3
		c1,3,2.6,4.6,4.7,6.5c5,4.5,10.5,7.2,17.2,8.9c4.7,1.2,9.4,3.2,14.1,4.7c0.7,0.2,3.9,0.1,1.7,2.7c-0.4,0.5-0.3,1.6,0.5,1.6
		c3.9,0,3.5,3.5,2.6,4.8c-1.4,2.1-3.2,4.5-6.9,3.6c-3-0.7-5.9-1-8.5-3.1c-4.1-3.3-9.3-3.6-14.3-4.6c-6.1-1.3-10.8-5.1-15.2-9.3
		c-1.9-1.9-3.3-3.5-4-6.4c-0.8-3-4.2-5.3-7.6-7.1c3.6-2,3.1-5.5,1.5-7.4c-3.5-4.1-2.4-9.1-3.1-13.4c-1.7-10-0.6-20.2,4.2-29.6
		c0.7-1.3,0.8-2.7,2.7-2.9c0.8-0.1,2-1.3,2-1.9c0-3.9,0.7-7.1,4.4-9.5c1.2-0.8-1.1-0.9-2-1.8C111,102.6,116.7,99.1,119.5,93.7z"/>
	<path class="st0" d="M31.2,229.6c1.7-4.3,1.3-8.6,0.4-13.3c8.6-0.9,12.8-9.2,21.6-11c0.2,0.1-0.6,1.5,0.3,2.3
		c0.5-3.9,3.9-4.7,6.4-6.7c3.6-2.8,7.7-4.6,11.4-7.1c3-2,6-1.4,8.8-0.4c1.9,0.7,4,1.9,3.8,4.6c-0.2,3.7-3.4,5.3-5.8,6.5
		c-5.8,2.9-11.3,6.3-16.8,9.8c-2.5,1.5-4.9,2.9-7.8,3.9c-4.6,1.5-9.1,3.7-11.8,8.6C39.8,230.4,36.4,232.6,31.2,229.6z M33.6,217.4
		c-0.1-0.1-0.2-0.2-0.3-0.3c-0.1,0.1-0.3,0.2-0.3,0.3c0,0.1,0.2,0.2,0.3,0.3C33.5,217.5,33.6,217.4,33.6,217.4z"/>
	<path class="st0" d="M225.3,124.7c0.5-3.9,1.4-6.9-2-7.2c-0.8-5.4,7.4-6,4.5-11.8c4.1-0.9,7.1-2.3,9.5-5.3c2.2-2.7,5.4-3.3,9.2-4
		c4.7-0.9,9.8-2.6,14.3-5.2c5.2-3,10.5-2,14.9,2.6c-2.9,6.8-8.7,8.6-15.3,10.8c-9.9,3.2-21.3,5.3-27.2,15.4
		C230.9,123.7,228.3,122.3,225.3,124.7z M253.2,96c-0.4-0.5-0.6-1-0.9-1.1c-0.5-0.1-1.4-0.1-1.1,0.9c0.1,0.3,0.5,0.8,0.9,0.8
		C252.3,96.7,252.7,96.3,253.2,96z"/>
	<path class="st0" d="M93.1,98.5c-2.6-3.1-6.5-2.6-9.8-3.9c-1.6-0.6-2.8-1.1-4.3-2c-5.5-3.3-10.5-7.7-17.2-8.7
		C57.6,83.4,49.1,73.7,49,69.5c0-1,0.1-2.6,1.1-2.5c3.6,0.2,7.4-3.3,10.7-0.2C65.3,71,72,72,75.9,77.2c2.1,2.8,6.1,1.1,9.1,2.7
		c4.3,2.3,7,6.2,10.6,9.1C97.5,90.6,95.7,95.7,93.1,98.5z"/>
	<path class="st0" d="M24,141c6-1,12.2-1.4,17.9-4.1c1.7-0.8,3.1-0.8,4.7-0.2c1.5,0.5,2.8,0.8,3.7-1.1c0.6-1.2,1.9-1.5,3-1.4
		c3.2,0.4,7.2-0.1,9.3,0.6c3.4,1.1,8.5,2.3,9.8,6.9c-4,7.1-11.6,6-17.4,6.4c-6.9,0.4-12.7,4.1-19.5,4c-2.8-0.1-5.5,0.1-8.3,1.5
		c-2.3,1.1-2.5-4.4-5.6-2.5C19.9,146.8,22.6,144.1,24,141L24,141z"/>
	<path class="st0" d="M123.1,43.3c-0.3-2-2.2-1-2.1-2.5c-0.3-5.1,5.9-9.4,1.9-15.6c2.7-0.7,6.5,0.3,6.6-4.3c0-0.6,2.5-1.1,2.9-1.2
		c8.5,2.7,4.7,8.2,3.5,12.5c-2.8,10-2.3,19.9-0.7,30c0.6,3.7-1.1,7.5-6.1,9.3c-0.9-4.6-3.6-8.6-5.8-11.8c-2.8-4,1-8.4-2.6-11.5
		C120.3,47.9,122.3,44.9,123.1,43.3z"/>
	<path class="st0" d="M219.6,36.1c-3.4,2.2-4.3,6.1-5.4,9.1c-2.8,8.1-6,16.2-5.9,25.3c0,3.3-4.7,5.7-7.2,8.1c-4.2-3.3-5.2-7-4-11.7
		c0.6-2.2,0.8-4.8-3.2-5.2c5.4-3.1,7.4-8.3,5.5-12.7c3.9-2.2,4.1-6.7,6.2-10.1c1.8-2.9,3.4-6.3,6-8.3c2-1.5,5.7-1.5,6.5,2.3
		C218.3,34.2,219.7,34.5,219.6,36.1z"/>
	<path class="st0" d="M136.4,142.3c0.1-6.6,5.9-12.7,11.9-12.4c4.5,0.2,11.4,5.4,11.3,8.6c-0.1,5.4-5.6,14.4-8.7,14.2
		C143.6,152.3,135,147.9,136.4,142.3z"/>
	<path class="st0" d="M24.1,141c-0.3-0.1-0.6-0.2-0.9-0.3C23.7,140.1,23.7,140.9,24.1,141C24,141,24.1,141,24.1,141z"/>
	<polygon class="st0" points="124,228 124.1,227.9 124,228 	"/>
	<path class="st1" d="M33.6,217.4c-0.1,0.1-0.2,0.2-0.3,0.3c-0.1-0.1-0.3-0.2-0.3-0.3c0-0.1,0.2-0.2,0.3-0.3
		C33.5,217.1,33.6,217.3,33.6,217.4z"/>
	<path class="st1" d="M253.2,96c-0.5,0.3-0.8,0.7-1.1,0.6c-0.4-0.1-0.8-0.5-0.9-0.8c-0.2-1,0.6-0.9,1.1-0.9
		C252.6,94.9,252.8,95.5,253.2,96z"/>
</g>
<g id="CMS__Mental_Health_Counselling">
	<g>
		<path class="st2" d="M188.1,217.4c6.2,0,11.2-0.9,15-2.8v-10.8c-3.8,2.2-8.1,3.4-12.7,3.4c-4.8,0-8.7-1.5-11.5-4.5
			c-2.9-3-4.3-7.1-4.3-12.1c0-5.3,1.5-9.5,4.5-12.6c3-3.1,7-4.6,11.9-4.6c4.5,0,8.5,1,12,3.1v-11.4c-3.5-1.3-7.8-1.9-13-1.9
			c-8.3,0-15,2.6-20.2,7.8c-5.2,5.2-7.8,12-7.8,20.4c0,7.9,2.3,14.2,6.9,18.9C173.7,215.1,180.1,217.4,188.1,217.4z M262.3,216.5
			H274V164h-16.9l-10.7,31c-0.7,2.1-1.4,4.7-2.1,7.6h-0.2c-0.4-2.5-1-5-1.9-7.5L231.5,164h-17.3v52.5h10.7v-29
			c0-3.9-0.2-8.4-0.5-13.6h0.3c0.8,3.9,1.3,6.4,1.6,7.3l12.5,35.3h9.7l12.3-35.7c0.5-1.4,1-3.7,1.6-7h0.3c-0.3,4.1-0.4,7.8-0.4,11.2
			V216.5z M319.5,209.1c1.1-2,1.7-4.4,1.7-7.4c0-2.1-0.3-4-1-5.6c-0.6-1.6-1.5-3-2.7-4.3c-1.2-1.2-2.6-2.4-4.3-3.3
			c-1.7-1-3.6-1.9-5.7-2.8c-1.5-0.6-2.9-1.3-4.1-1.8c-1.2-0.6-2.3-1.2-3.1-1.8c-0.9-0.6-1.5-1.3-2-2c-0.5-0.7-0.7-1.5-0.7-2.4
			c0-0.8,0.2-1.5,0.6-2.2c0.4-0.6,1-1.2,1.8-1.7c0.8-0.5,1.7-0.8,2.8-1.1c1.1-0.3,2.3-0.4,3.7-0.4c1,0,2,0.1,3.1,0.2
			c1.1,0.1,2.2,0.4,3.3,0.7c1.1,0.3,2.2,0.7,3.2,1.2c1,0.5,2,1,2.9,1.6v-10.9c-1.8-0.7-3.7-1.2-5.8-1.5c-2.1-0.3-4.5-0.5-7.3-0.5
			c-2.8,0-5.4,0.3-7.9,0.9c-2.5,0.6-4.7,1.5-6.6,2.8c-1.9,1.3-3.4,2.9-4.5,4.8c-1.1,2-1.6,4.3-1.6,7c0,3.5,1,6.5,3,8.9
			c2,2.5,5.1,4.6,9.2,6.3c1.6,0.7,3.1,1.3,4.5,1.9c1.4,0.6,2.6,1.3,3.6,2c1,0.7,1.8,1.4,2.4,2.2c0.6,0.8,0.9,1.7,0.9,2.7
			c0,0.8-0.2,1.5-0.5,2.1c-0.4,0.6-0.9,1.2-1.7,1.7c-0.7,0.5-1.7,0.8-2.8,1.1c-1.1,0.3-2.4,0.4-3.9,0.4c-2.5,0-5.1-0.4-7.5-1.3
			c-2.5-0.9-4.8-2.2-6.9-4v11.7c1.9,1,4.2,1.7,6.8,2.2c2.6,0.5,5.3,0.7,8.2,0.7c2.8,0,5.5-0.3,8-0.8s4.7-1.4,6.6-2.7
			C316.9,212.7,318.4,211.1,319.5,209.1z M180.2,258.8c-0.4,0.8-0.8,2-1.4,3.7h-0.1c-0.2-0.8-0.7-2-1.4-3.6l-9.2-20.9h-4.6v30h3.4
			v-20.1c0-2.7-0.1-4.7-0.2-5.9h0.1c0.3,1.4,0.6,2.4,0.9,3.1l10.2,22.9h1.7l10.2-23c0.3-0.6,0.6-1.6,0.9-2.9h0.1
			c-0.2,2.3-0.3,4.2-0.3,5.8v20.1h3.5v-30h-4.4L180.2,258.8z M210.9,246c-2.8,0-5.1,1-7,3.1c-1.9,2.1-2.8,4.8-2.8,8.1
			c0,3.5,0.9,6.3,2.6,8.2c1.7,1.9,4.1,2.9,7.1,2.9c3.1,0,5.6-0.7,7.5-2v-3.2c-2,1.6-4.2,2.4-6.7,2.4c-2.1,0-3.8-0.6-5.1-1.9
			c-1.2-1.3-1.9-3.1-1.9-5.5h15.1v-1.8c0-3.2-0.8-5.7-2.3-7.6C215.9,246.9,213.7,246,210.9,246z M204.6,255.2c0.3-1.9,1-3.4,2.1-4.5
			c1.1-1.2,2.5-1.7,4.1-1.7c1.7,0,3,0.6,3.9,1.7c0.9,1.1,1.4,2.6,1.4,4.6H204.6z M236.5,246c-3.1,0-5.4,1.4-7,4.1h-0.1v-3.6H226
			v21.4h3.4v-12.2c0-2,0.6-3.6,1.7-4.9c1.1-1.3,2.5-1.9,4.3-1.9c3.3,0,5,2.3,5,6.8v12.2h3.4v-13.1c0-2.9-0.6-5-1.9-6.6
			C240.7,246.8,238.9,246,236.5,246z M255.8,240.2l-3.4,1.1v5.2h-3.7v2.9h3.7v12.7c0,4.2,1.9,6.3,5.6,6.3c1.3,0,2.4-0.2,3.2-0.7
			v-2.9c-0.6,0.5-1.4,0.7-2.2,0.7c-1.1,0-1.9-0.3-2.4-0.9c-0.5-0.6-0.7-1.6-0.7-3.1v-12.1h5.4v-2.9h-5.4V240.2z M274.7,246
			c-2.7,0-5.2,0.7-7.3,2v3.5c2.1-1.8,4.4-2.6,7-2.6c2.9,0,4.4,1.8,4.4,5.5l-6.4,0.9c-4.7,0.7-7.1,3-7.1,7c0,1.9,0.6,3.4,1.8,4.5
			c1.2,1.1,2.9,1.7,5,1.7c2.9,0,5.1-1.3,6.6-3.8h0.1v3.3h3.4V254C282.2,248.7,279.7,246,274.7,246z M278.8,259.2
			c0,1.8-0.6,3.3-1.7,4.5s-2.5,1.8-4.2,1.8c-1.2,0-2.2-0.3-3-1c-0.7-0.7-1.1-1.5-1.1-2.6c0-1.4,0.4-2.4,1.2-3c0.8-0.6,2-1,3.6-1.2
			l5.2-0.7V259.2z M289.7,267.9h3.4v-31.7h-3.4V267.9z M333.5,251.1H318v-13.2h-3.5v30h3.5v-13.7h15.5v13.7h3.5v-30h-3.5V251.1z
			 M353.9,246c-2.8,0-5.1,1-7,3.1c-1.9,2.1-2.8,4.8-2.8,8.1c0,3.5,0.9,6.3,2.6,8.2c1.7,1.9,4.1,2.9,7.1,2.9c3.1,0,5.6-0.7,7.5-2
			v-3.2c-2,1.6-4.2,2.4-6.7,2.4c-2.1,0-3.8-0.6-5.1-1.9c-1.2-1.3-1.9-3.1-1.9-5.5h15.1v-1.8c0-3.2-0.8-5.7-2.3-7.6
			C358.8,246.9,356.7,246,353.9,246z M347.6,255.2c0.3-1.9,1-3.4,2.1-4.5c1.1-1.2,2.5-1.7,4.1-1.7c1.7,0,3,0.6,3.9,1.7
			c0.9,1.1,1.4,2.6,1.4,4.6H347.6z M376.7,246c-2.7,0-5.2,0.7-7.3,2v3.5c2.1-1.8,4.4-2.6,7-2.6c2.9,0,4.4,1.8,4.4,5.5l-6.4,0.9
			c-4.7,0.7-7.1,3-7.1,7c0,1.9,0.6,3.4,1.8,4.5c1.2,1.1,2.9,1.7,5,1.7c2.9,0,5.1-1.3,6.6-3.8h0.1v3.3h3.4V254
			C384.3,248.7,381.7,246,376.7,246z M380.8,259.2c0,1.8-0.6,3.3-1.7,4.5c-1.1,1.2-2.5,1.8-4.2,1.8c-1.2,0-2.2-0.3-3-1
			c-0.7-0.7-1.1-1.5-1.1-2.6c0-1.4,0.4-2.4,1.2-3c0.8-0.6,2-1,3.6-1.2l5.2-0.7V259.2z M391.8,267.9h3.4v-31.7h-3.4V267.9z
			 M407.8,240.2l-3.4,1.1v5.2h-3.7v2.9h3.7v12.7c0,4.2,1.9,6.3,5.6,6.3c1.3,0,2.4-0.2,3.2-0.7v-2.9c-0.6,0.5-1.4,0.7-2.2,0.7
			c-1.1,0-1.9-0.3-2.4-0.9c-0.5-0.6-0.7-1.6-0.7-3.1v-12.1h5.4v-2.9h-5.4V240.2z M429.4,246c-3,0-5.4,1.4-7,4.1h-0.1v-13.8h-3.4
			v31.7h3.4v-12.1c0-2,0.6-3.7,1.7-5c1.1-1.3,2.6-1.9,4.2-1.9c3.3,0,5,2.2,5,6.7v12.3h3.4v-13.2C436.6,248.9,434.2,246,429.4,246z
			 M459.8,241.9c-2.9,3-4.3,6.8-4.3,11.6c0,4.5,1.3,8.1,3.8,10.8c2.6,2.7,6,4.1,10.2,4.1c3.3,0,6.1-0.6,8.3-1.8v-3.4
			c-2.2,1.3-4.8,2-7.8,2c-3.2,0-5.9-1.1-7.9-3.3c-2-2.2-3-5.1-3-8.7c0-3.8,1.1-6.9,3.2-9.2c2.1-2.3,4.9-3.5,8.4-3.5
			c2.6,0,5,0.6,7.1,1.8v-3.7c-1.9-0.8-4.2-1.2-7.1-1.2C466.3,237.4,462.7,238.9,459.8,241.9z M494,246c-3.3,0-6,1-8,3
			c-2,2-2.9,4.8-2.9,8.4c0,3.3,0.9,6,2.8,8c1.9,2,4.4,3,7.6,3c3.2,0,5.8-1,7.8-3.1c1.9-2.1,2.9-4.8,2.9-8.2c0-3.5-0.9-6.2-2.7-8.2
			C499.7,247,497.2,246,494,246z M498.9,263.4c-1.2,1.4-2.9,2.2-5.1,2.2c-2.2,0-3.9-0.7-5.2-2.2c-1.3-1.5-1.9-3.5-1.9-6
			c0-2.6,0.6-4.7,1.9-6.2c1.3-1.5,3-2.2,5.2-2.2c2.2,0,3.9,0.7,5.1,2.2c1.2,1.5,1.8,3.5,1.8,6.2C500.6,259.9,500,261.9,498.9,263.4z
			 M524.6,258.8c0,2-0.5,3.6-1.6,4.8c-1.1,1.2-2.5,1.9-4.1,1.9c-3.5,0-5.2-2.3-5.2-6.8v-12.3h-3.4v12.8c0,6.1,2.6,9.1,7.7,9.1
			c3,0,5.2-1.3,6.6-3.9h0.1v3.4h3.4v-21.4h-3.4V258.8z M546.6,246c-3.1,0-5.4,1.4-7,4.1h-0.1v-3.6H536v21.4h3.4v-12.2
			c0-2,0.6-3.6,1.7-4.9c1.1-1.3,2.5-1.9,4.3-1.9c3.3,0,5,2.3,5,6.8v12.2h3.4v-13.1c0-2.9-0.6-5-1.9-6.6
			C550.7,246.8,548.9,246,546.6,246z M572.6,258.3c-0.5-0.5-1.2-0.9-1.9-1.3c-0.8-0.4-1.6-0.8-2.6-1.1c-0.7-0.3-1.3-0.5-1.9-0.8
			c-0.6-0.2-1-0.5-1.4-0.8c-0.4-0.3-0.7-0.6-0.9-1c-0.2-0.4-0.3-0.8-0.3-1.4c0-0.4,0.1-0.9,0.3-1.2c0.2-0.4,0.5-0.7,0.9-1
			c0.4-0.3,0.8-0.5,1.3-0.6c0.5-0.1,1.1-0.2,1.7-0.2c2,0,3.9,0.5,5.4,1.5V247c-1.5-0.6-3.1-1-5-1c-1,0-2.1,0.1-3,0.4
			c-1,0.3-1.9,0.7-2.6,1.2c-0.8,0.5-1.4,1.2-1.8,1.9c-0.5,0.8-0.7,1.7-0.7,2.7c0,0.8,0.1,1.5,0.4,2.2c0.2,0.6,0.6,1.2,1.1,1.6
			c0.5,0.5,1.1,0.9,1.8,1.3c0.7,0.4,1.6,0.8,2.5,1.1c0.7,0.3,1.3,0.5,1.9,0.8c0.6,0.2,1.1,0.5,1.5,0.8c0.4,0.3,0.8,0.7,1,1.1
			c0.3,0.4,0.4,0.9,0.4,1.5c0,2-1.5,3-4.5,3c-2.2,0-4.3-0.7-6.2-2.1v3.7c1.6,0.9,3.5,1.3,5.7,1.3c1.1,0,2.2-0.1,3.2-0.4
			c1-0.3,1.9-0.6,2.7-1.2c0.8-0.5,1.4-1.2,1.9-1.9c0.5-0.8,0.7-1.7,0.7-2.8c0-0.9-0.1-1.6-0.4-2.2
			C573.5,259.3,573.1,258.8,572.6,258.3z M589,246c-2.8,0-5.1,1-7,3.1c-1.9,2.1-2.8,4.8-2.8,8.1c0,3.5,0.9,6.3,2.6,8.2
			c1.7,1.9,4.1,2.9,7.1,2.9c3.1,0,5.6-0.7,7.5-2v-3.2c-2,1.6-4.2,2.4-6.7,2.4c-2.1,0-3.8-0.6-5.1-1.9c-1.2-1.3-1.9-3.1-1.9-5.5h15.1
			v-1.8c0-3.2-0.8-5.7-2.3-7.6C593.9,246.9,591.8,246,589,246z M582.7,255.2c0.3-1.9,1-3.4,2.1-4.5c1.1-1.2,2.5-1.7,4.1-1.7
			c1.7,0,3,0.6,3.9,1.7c0.9,1.1,1.4,2.6,1.4,4.6H582.7z M604,267.9h3.4v-31.7H604V267.9z M615.5,267.9h3.4v-31.7h-3.4V267.9z
			 M628.7,236.6c-0.6,0-1.1,0.2-1.6,0.6c-0.4,0.4-0.6,1-0.6,1.6c0,0.6,0.2,1.2,0.6,1.6c0.4,0.4,1,0.6,1.6,0.6c0.6,0,1.2-0.2,1.6-0.6
			c0.4-0.4,0.7-1,0.7-1.6c0-0.6-0.2-1.2-0.7-1.6C629.8,236.8,629.3,236.6,628.7,236.6z M626.9,267.9h3.4v-21.4h-3.4V267.9z
			 M648.9,246c-3.1,0-5.4,1.4-7,4.1h-0.1v-3.6h-3.4v21.4h3.4v-12.2c0-2,0.6-3.6,1.7-4.9c1.1-1.3,2.5-1.9,4.3-1.9c3.3,0,5,2.3,5,6.8
			v12.2h3.4v-13.1c0-2.9-0.6-5-1.9-6.6C653,246.8,651.3,246,648.9,246z M678.5,246.5v3h-0.1c-1.4-2.3-3.5-3.5-6.4-3.5
			c-3,0-5.4,1.1-7.2,3.2c-1.8,2.1-2.6,5-2.6,8.7c0,3.2,0.8,5.8,2.4,7.7c1.6,1.9,3.8,2.9,6.4,2.9c3.3,0,5.7-1.4,7.4-4.1h0.1v2.3
			c0,5.6-2.6,8.4-7.9,8.4c-2.2,0-4.5-0.7-6.9-2v3.4c2,1,4.3,1.5,6.9,1.5c7.5,0,11.3-3.9,11.3-11.8v-19.7H678.5z M678.5,258.2
			c0,2.1-0.6,3.9-1.8,5.2c-1.2,1.4-2.8,2-4.7,2c-1.9,0-3.4-0.7-4.6-2.1c-1.2-1.4-1.7-3.3-1.7-5.7c0-2.8,0.6-4.9,1.8-6.5
			c1.2-1.5,2.9-2.3,5-2.3c1.7,0,3.1,0.6,4.3,1.8c1.2,1.2,1.7,2.7,1.7,4.4V258.2z"/>
	</g>
</g>
</svg>
